HIERARCHY
ROOT Hips
{
	OFFSET -0.001795 -0.223333 0.028219
	CHANNELS 6 Xposition Yposition Zposition Zrotation Yrotation Xrotation 
	JOINT LeftUpLeg
	{
		OFFSET 0.069520 -0.091406 -0.006815
		CHANNELS 3 Zrotation Yrotation Xrotation
		JOINT LeftLeg
		{
			OFFSET 0.034277 -0.375199 -0.004496
			CHANNELS 3 Zrotation Yrotation Xrotation
			JOINT LeftFoot
			{
				OFFSET -0.013596 -0.397961 -0.043693
				CHANNELS 3 Zrotation Yrotation Xrotation
				JOINT LeftToe
				{
					OFFSET 0.026358 -0.055791 0.119288
					CHANNELS 3 Zrotation Yrotation Xrotation
					End Site
					{
						OFFSET 0.000000 0.000000 0.000000
					}
				}
			}
		}
	}
	JOINT RightUpLeg
	{
		OFFSET -0.067670 -0.090522 -0.004320
		CHANNELS 3 Zrotation Yrotation Xrotation
		JOINT RightLeg
		{
			OFFSET -0.038290 -0.382569 -0.008850
			CHANNELS 3 Zrotation Yrotation Xrotation
			JOINT RightFoot
			{
				OFFSET 0.015774 -0.398415 -0.042312
				CHANNELS 3 Zrotation Yrotation Xrotation
				JOINT RightToe
				{
					OFFSET -0.025372 -0.048144 0.123348
					CHANNELS 3 Zrotation Yrotation Xrotation
					End Site
					{
						OFFSET 0.000000 0.000000 0.000000
					}
				}
			}
		}
	}
	JOINT Spine
	{
		OFFSET -0.002533 0.108963 -0.026696
		CHANNELS 3 Zrotation Yrotation Xrotation
		JOINT Spine1
		{
			OFFSET 0.005487 0.135180 0.001092
			CHANNELS 3 Zrotation Yrotation Xrotation
			JOINT Spine2
			{
				OFFSET 0.001457 0.052922 0.025425
				CHANNELS 3 Zrotation Yrotation Xrotation
				JOINT Neck
				{
					OFFSET -0.002778 0.213870 -0.042857
					CHANNELS 3 Zrotation Yrotation Xrotation
					JOINT Head
					{
						OFFSET 0.005152 0.064970 0.051349
						CHANNELS 3 Zrotation Yrotation Xrotation
						End Site
						{
							OFFSET 0.000000 0.000000 0.000000
						}
					}
				}
				JOINT LeftShoulder
				{
					OFFSET 0.078845 0.121749 -0.034090
					CHANNELS 3 Zrotation Yrotation Xrotation
					JOINT LeftArm
					{
						OFFSET 0.090977 0.030469 -0.008868
						CHANNELS 3 Zrotation Yrotation Xrotation
						JOINT LeftForeArm
						{
							OFFSET 0.259612 -0.012772 -0.027456
							CHANNELS 3 Zrotation Yrotation Xrotation
							JOINT LeftHand
							{
								OFFSET 0.249234 0.008986 -0.001171
								CHANNELS 3 Zrotation Yrotation Xrotation
								End Site
								{
									OFFSET 0.000000 0.000000 0.000000
								}
							}
						}
					}
				}
				JOINT RightShoulder
				{
					OFFSET -0.081759 0.118833 -0.038615
					CHANNELS 3 Zrotation Yrotation Xrotation
					JOINT RightArm
					{
						OFFSET -0.096012 0.032551 -0.009143
						CHANNELS 3 Zrotation Yrotation Xrotation
						JOINT RightForeArm
						{
							OFFSET -0.253742 -0.013329 -0.021401
							CHANNELS 3 Zrotation Yrotation Xrotation
							JOINT RightHand
							{
								OFFSET -0.255298 0.007772 -0.005559
								CHANNELS 3 Zrotation Yrotation Xrotation
								End Site
								{
									OFFSET 0.000000 0.000000 0.000000
								}
							}
						}
					}
				}
			}
		}
	}
}
MOTION
Frames: 14
Frame Time: 0.050000
-0.180887 0.967113 0.422266 160.867491 79.437647 160.642739 -3.562063 -0.904645 -10.700895 4.341655 -2.146043 11.046911 6.732819 -5.776761 -4.476331 0.000000 0.000000 0.000000 -1.816041 -2.099039 -4.605489 -5.117280 -2.493091 11.369675 4.770801 4.034263 11.275468 0.000000 0.000000 0.000000 5.340902 -6.651627 23.074318 -7.151439 1.326907 -28.795640 4.012221 19.289252 27.285768 0.038451 8.874497 -26.782524 0.000000 0.000000 0.000000 -25.727362 -17.541990 -32.709677 -24.190655 26.874475 -2.226993 -29.151858 -32.626224 6.915072 0.000000 0.000000 0.000000 33.557241 -10.108844 25.329057 29.933634 31.267293 -3.191903 -2.315264 35.489013 -0.358740 0.000000 0.000000 0.000000 
-0.177599 0.967163 0.424496 166.726294 72.482256 167.342721 -2.326803 -1.345266 -12.599587 0.793376 -2.969982 13.130129 3.558821 -11.552483 -4.127523 0.000000 0.000000 0.000000 -2.608753 -2.941063 -4.380773 -3.291331 -3.948821 11.621007 1.916460 -0.750930 10.766556 0.000000 0.000000 0.000000 6.017757 -6.683441 22.244032 -8.253892 0.666902 -28.887577 4.292019 19.094939 27.015346 1.145046 7.961023 -26.138549 0.000000 0.000000 0.000000 -24.764429 -18.037505 -35.528807 -24.380061 28.326054 -2.301455 -27.385151 -30.540545 5.851378 0.000000 0.000000 0.000000 34.184010 -11.113029 27.887663 27.712028 33.625683 -3.364702 -3.895550 33.544311 -1.240279 0.000000 0.000000 0.000000 
-0.172989 0.966141 0.425284 169.083818 65.767044 169.778304 -0.579034 -2.035367 -14.639155 -3.531401 -4.988430 17.306564 3.106451 -11.992473 -2.913154 0.000000 0.000000 0.000000 -2.647332 -3.376973 -2.324977 -2.389724 -4.401004 10.091412 -0.874466 -6.320750 10.316452 0.000000 0.000000 0.000000 6.148939 -6.927238 22.256614 -9.649910 -0.545755 -29.978998 6.278869 19.605420 28.179340 0.784736 6.649503 -24.904922 0.000000 0.000000 0.000000 -23.720044 -19.636097 -39.249723 -22.648755 31.724574 -1.984472 -29.650819 -29.751717 6.411275 0.000000 0.000000 0.000000 33.946819 -11.061818 31.449614 25.658248 35.512766 -3.380760 -8.089416 31.683951 -2.832299 0.000000 0.000000 0.000000 
-0.166955 0.966689 0.424480 170.142622 58.653877 171.367410 0.431799 -2.893313 -16.707002 -7.965082 -6.698070 18.745964 2.985725 -5.070666 4.447248 0.000000 0.000000 0.000000 -3.250831 -4.206505 0.026775 -0.779616 -4.689601 7.466278 -3.126209 -11.169261 10.874230 0.000000 0.000000 0.000000 5.290862 -5.837910 20.799994 -9.494109 -0.711562 -27.699356 5.666263 18.658408 26.702730 1.377947 4.488984 -24.064961 0.000000 0.000000 0.000000 -22.188942 -20.198903 -42.450750 -22.166131 33.755603 -2.012704 -29.742209 -28.286609 6.045866 0.000000 0.000000 0.000000 34.438733 -12.546183 34.321892 23.217532 38.163969 -3.723574 -11.867543 28.763665 -3.755384 0.000000 0.000000 0.000000 
-0.160010 0.967801 0.421545 170.669078 53.319459 172.277478 1.599586 -3.387579 -17.300211 -10.846654 -7.527564 17.091547 10.195307 4.222748 16.203867 0.000000 0.000000 0.000000 -3.789573 -5.050362 2.700574 0.201494 -4.491122 4.701883 -3.047179 -13.232082 10.905801 0.000000 0.000000 0.000000 4.624752 -5.109519 19.890979 -9.630895 -1.331649 -27.135777 6.576422 19.434070 26.846238 1.283280 2.110000 -24.274789 0.000000 0.000000 0.000000 -19.947993 -20.317461 -46.594562 -22.621743 36.449806 -2.610660 -30.085073 -26.591919 5.460925 0.000000 0.000000 0.000000 33.722219 -14.059955 37.090600 21.693428 42.042300 -3.381526 -14.556436 27.032575 -4.245325 0.000000 0.000000 0.000000 
-0.152423 0.968004 0.415766 171.270975 46.587615 173.003215 0.093398 -3.257958 -17.032211 -9.388955 -7.170359 13.228502 23.318472 1.644507 28.508774 0.000000 0.000000 0.000000 -2.850463 -5.526801 5.879956 0.881131 -4.210914 1.407751 -6.777017 -20.970246 11.966934 0.000000 0.000000 0.000000 3.875912 -4.550301 18.843489 -7.611753 -0.866959 -24.771176 3.487850 18.686392 25.882429 1.913961 -0.830130 -24.427961 0.000000 0.000000 0.000000 -16.002379 -19.838349 -49.841467 -24.288365 38.679239 -4.408980 -31.812690 -24.511998 4.422808 0.000000 0.000000 0.000000 31.482368 -15.289608 40.165902 23.395755 48.853098 -1.108940 -19.250110 23.467007 -4.475901 0.000000 0.000000 0.000000 
-0.145118 0.967258 0.406444 172.558117 43.372118 174.876480 -0.021994 -3.231933 -16.732793 -6.921120 -5.877090 7.354741 27.812060 -4.410263 31.943670 0.000000 0.000000 0.000000 -2.394294 -5.886997 7.467142 1.653083 -4.236458 -0.522737 -6.129965 -21.749325 11.816927 0.000000 0.000000 0.000000 4.464298 -4.241279 17.808982 -9.483021 -2.264047 -25.276613 6.488447 20.564068 26.737116 1.081489 -2.795415 -26.315102 0.000000 0.000000 0.000000 -12.797018 -19.511001 -56.260520 -22.811352 43.830687 -5.035831 -33.501301 -20.985996 3.302275 0.000000 0.000000 0.000000 28.748162 -15.854383 43.547829 23.627089 52.669897 1.427545 -23.114100 23.544784 -5.205644 0.000000 0.000000 0.000000 
-0.137939 0.962994 0.393386 173.029307 39.302161 176.799888 -0.669253 -3.449663 -17.140996 -6.248481 -6.066480 3.865483 29.650479 -10.062794 35.795861 0.000000 0.000000 0.000000 -2.540253 -6.393162 7.562100 2.119427 -4.759278 -0.946245 -5.324111 -22.873431 11.304448 0.000000 0.000000 0.000000 3.820262 -3.877293 17.249604 -8.812899 -2.353082 -25.142810 5.893078 21.360869 25.960869 0.486307 -5.842335 -26.830279 0.000000 0.000000 0.000000 -9.444875 -19.806024 -63.550786 -18.634304 48.696115 -4.132964 -34.148833 -16.651202 1.829299 0.000000 0.000000 0.000000 27.493084 -17.189560 49.315493 17.282540 58.738827 -0.245991 -25.874374 20.581086 -5.323813 0.000000 0.000000 0.000000 
-0.131103 0.958005 0.376384 173.448828 37.164527 178.011223 -0.932056 -3.413577 -16.940305 -6.278739 -6.551884 1.927645 30.515224 -12.760190 36.887989 0.000000 0.000000 0.000000 -2.645634 -6.798294 8.071298 2.052877 -4.844295 -1.210916 -4.768348 -23.435498 11.217738 0.000000 0.000000 0.000000 3.593733 -3.553240 16.659306 -9.856785 -3.330949 -26.127683 7.374244 23.149033 26.919497 0.803691 -7.712374 -27.994957 0.000000 0.000000 0.000000 -6.121923 -20.131251 -72.509402 -10.194048 53.840451 -0.019871 -36.000704 -11.898164 0.430655 0.000000 0.000000 0.000000 25.823354 -18.350162 55.936085 5.388987 63.813780 -5.973372 -27.789680 18.500808 -5.456652 0.000000 0.000000 0.000000 
-0.123881 0.952763 0.355109 174.114088 35.623428 179.261947 -1.061491 -3.697289 -17.502144 -6.357857 -6.677483 2.766522 32.396378 -14.480082 35.662910 0.000000 0.000000 0.000000 -3.196179 -7.284207 8.097553 2.045331 -6.233467 1.603174 1.233286 -20.882907 6.200404 0.000000 0.000000 0.000000 3.438102 -3.168308 15.920624 -9.886931 -3.559590 -27.045307 7.289944 24.074709 27.518721 2.625356 -7.991604 -28.910503 0.000000 0.000000 0.000000 -3.131764 -19.506548 -80.024613 -0.027440 57.220410 5.695868 -36.592863 -7.037561 -1.282385 0.000000 0.000000 0.000000 25.826896 -19.436308 61.970429 -8.254921 66.395758 -15.539388 -28.619092 15.669497 -5.248044 0.000000 0.000000 0.000000 
-0.116218 0.950123 0.329263 174.122810 36.745173 179.286696 -1.569714 -3.603964 -17.498964 -6.775220 -6.607957 5.616668 35.642126 -14.030692 34.079641 0.000000 0.000000 0.000000 -4.559692 -7.928606 8.159491 1.700432 -7.781614 5.154415 4.352672 -17.793163 3.917959 0.000000 0.000000 0.000000 2.614838 -2.794056 15.628317 -10.642142 -4.013547 -27.102791 8.644326 25.503090 27.935901 2.818756 -7.447122 -29.824187 0.000000 0.000000 0.000000 -2.624745 -18.994176 -82.384819 3.498188 57.924066 8.058915 -36.652100 -4.576420 -1.893470 0.000000 0.000000 0.000000 24.895533 -19.261933 63.301911 -11.333326 67.527044 -17.249472 -28.647577 16.218686 -5.542810 0.000000 0.000000 0.000000 
-0.108643 0.949920 0.299307 174.574135 35.095045 179.437610 -2.740111 -3.038460 -16.386501 -6.501891 -6.724616 7.279157 37.783241 -15.098176 31.074695 0.000000 0.000000 0.000000 -5.853498 -8.788442 7.652557 0.730308 -10.934827 10.148383 5.270282 -14.126910 6.997244 0.000000 0.000000 0.000000 2.203798 -2.897908 16.013404 -10.684645 -4.390178 -28.378876 7.733012 25.233841 27.684648 6.168502 -6.203113 -29.922510 0.000000 0.000000 0.000000 -0.418948 -18.952531 -84.967001 7.684952 59.340834 10.229147 -36.208941 -2.894680 -2.808395 0.000000 0.000000 0.000000 24.641789 -19.594556 66.051277 -15.539322 68.945283 -21.160748 -28.965228 16.383180 -5.864541 0.000000 0.000000 0.000000 
-0.101575 0.951352 0.267477 174.735759 33.824955 178.452909 -3.356176 -1.984778 -13.673424 -7.661410 -7.507585 8.139535 38.892732 -14.917952 28.966479 0.000000 0.000000 0.000000 -7.640438 -9.983860 6.073131 -5.039468 -17.160368 20.634882 10.493924 -5.884842 10.775353 0.000000 0.000000 0.000000 1.319465 -2.853651 16.199412 -10.741295 -4.433653 -27.369271 7.896353 24.540920 27.820838 6.249169 -6.247216 -30.307183 0.000000 0.000000 0.000000 0.451149 -19.591085 -86.317566 10.254973 59.484708 11.937356 -37.295492 -1.740686 -3.174843 0.000000 0.000000 0.000000 24.898059 -20.527609 66.763635 -15.864111 68.543711 -21.777647 -29.596752 17.476514 -6.328637 0.000000 0.000000 0.000000 
-0.094626 0.954066 0.236398 175.839433 31.710465 177.630414 -3.685522 -1.098953 -10.157688 -7.128909 -7.407652 8.326523 39.104983 -15.492776 25.794793 0.000000 0.000000 0.000000 -7.966048 -10.687958 1.249141 -23.204641 -27.045910 40.553259 22.608561 5.865574 18.816606 0.000000 0.000000 0.000000 0.530338 -3.612577 17.987399 -9.805317 -4.164556 -28.591191 7.217707 22.689500 29.107784 9.134379 -5.697282 -29.904715 0.000000 0.000000 0.000000 0.613226 -20.120918 -87.500369 8.902153 59.082845 11.613261 -36.860764 -2.437233 -2.785007 0.000000 0.000000 0.000000 24.810156 -21.637959 66.422630 -10.031177 69.175002 -18.472459 -29.395852 20.259301 -6.976647 0.000000 0.000000 0.000000 
